<svg xmlns="http://www.w3.org/2000/svg" viewBox="0 0 448 450"><g id="Planet_Earth_Illustration" data-name="Planet Earth / Illustration"><path d="M201.3582,5.5015C356.4206-3.6649,442.7361,114.7326,442.7361,204.1034,449.0933,504.8754,23.6346,539.9005,5.044,218.6159,3.52,112.4411,96.023,11.7281,201.3582,5.5015Z" fill="#414a97" fill-rule="evenodd"/><path d="M257.9449,8.0107c2.7068,4.2092,5.7086,8.0664,6.4318,10.4769,2.2915,7.6385,7.255,5.3469,18.331,11.0758S299.1322,41.0209,302.57,41.0209s-.764-5.348-2.6736-12.6046,17.5678,12.6046,25.97,15.2782.3833,3.4368-6.8735,11.4574-16.0428,1.1462-25.5907-3.4368-7.2554-.7654-4.2,9.9286,17.95,7.2568,31.3169,8.0207,4.2021,2.2917,7.2576,11.0759-21.77,3.8207-24.8251,3.8207,15.6575,22.1512,29.025,30.9354c3.4,2.2346,5.19,2.7591,5.9878,2.218.2968,6.5218,8.4255,17.3633,8.1456,21.8441-.3823,6.1108-17.5689,2.6724-21.77,12.2207s6.4912,9.1654,15.6576,22.9148-4.2005,23.68,7.2574,43.1586,34.4889,5.9278,40.9707,3.7674,8.1028,4.32,14.5842-2.7013.2065-16.3429,7.8449-17.8708,6.8737,21.3873,12.2207,36.6643,3.0551,13.7514,3.0551,33.6114c0,7.498-2.0737,23.7276-5.0186,43.672,30.5-81.12,34.3147-152.6865-20.3895-224.5116-1.1043,11.8325-2.644,21.5911-4.7619,22.7205-5.7289,3.0554-13.7509-4.9649-22.9173-11.0757s-21.0049,8.0206-31.3171,10.6942a4.4022,4.4022,0,0,0-3.15,2.3566c-.6854-3.8646-4.1578-10.79-3.7258-13.8141.7638-5.347,11.0769,3.0558,12.6046-.3817s-5.73-12.9865-4.584-17.9516,6.8757-1.5269,7.2576-9.1656,6.8751-1.91,16.0412,3.4369,8.7839,3.4382,6.1105-3.8184c-2.5177-7.5577-11.9041-15.4864-16.083-25.8567C329.1453,28.29,296.3311,13.9417,257.9449,8.0107Zm-26.6917,6.8667a13.4213,13.4213,0,0,0-3.4461.6846c-8.1018,2.4305-10.5312,5.9417-12.4218,7.2921s-9.1828-2.9726-15.6644.2685S187.569,33.1162,191.89,39.0575c5.1312,6.4816.54,8.9128,11.6124,9.7229s15.6633,2.16,22.1447,11.6124,9.1816,22.4158,16.2032,16.7445,3.5118-19.7158,11.0736-28.8981,8.6421-24.0356,0-22.4153S236.18,30.9565,234.29,24.205C232.754,18.7193,234.7836,14.8364,231.2532,14.8774Zm-102.99,10.5138a219.2209,219.2209,0,0,0-40.8991,26.391c1.5074,9.1371,2.8989,17.1719,2.47,20.1742-1.1457,8.02-33.6091,63.4-33.6091,76.7677s3.8191,15.2764,5.7287,19.86S61.19,181.57,64.6278,195.7009,89.8346,217.088,100.91,217.2791s9.74,4.3933,13.3679,9.5492,17.9516,21.96,17.9516,21.96c2.9949,2.8633,1.3262-6.1038-.5643-10.9649s2.43-8.1007-2.7013-13.5021-11.6292-7.231-10.8653-16.3974,2.673-14.1317-2.2921-16.0413-20.2429,16.8049-32.0827,2.6736.0014-18.7142,12.2231-30.554,19.86,0,27.88,5.7287,6.8743,19.4781,11.4575,19.4781,2.2923-8.4035,1.91-20.6252,15.6587-12.2213,14.1311-22.5332,21.0046-16.4224,34.7539-22.5333,3.8211-10.3127-2.29-21.3884,7.6375-3.0561,14.8941.7632,21.3887,10.3131,26.7357,9.5493-17.9514-28.6449-32.0827-43.54-18.7145,2.6738-24.8253,13.3677-19.8612,10.693-26.3538,1.1447-3.8193-8.4017-2.6736-19.86,17.952-4.5824,31.32-.7632,18.3319-7.258,17.1862-14.8965-7.6391-8.0189-18.7151-1.908-13.7487-.3833-19.86-6.8759-9.1654,2.6738-14.8943-3.0551C132.5524,34.086,130.4417,29.9926,128.2636,25.3912Zm12.3131,168.9521c-.27,3.5108,6.4826,7.0224,9.9934,8.6428s7.2923,7.8322,13.2337,10.8029,6.48-5.9431,3.7789-10.264S145.9779,196.7739,140.5767,194.3433Zm8.8394,41.8424c-6.4928,0-14.8955,43.5394-13.3678,55.3792s30.9375,43.9207,45.0688,56.1424,4.9637,10.6951,9.9288,42.777,31.701,40.4834,40.1033,45.0664c0,0,2.6007-.0416,2.0606-3.8207-.54-3.7807-8.1718-11.4553-10.0814-19.4756s1.5279-17.9508,13.75-27.4989,21.7694-9.5494,38.956-25.9724,5.73-29.0254,15.66-37.0458,16.04-30.5545,10.31-35.5194-17.5669,4.9655-26.7333-6.1105-23.2988,3.4365-31.7011-1.5286-26.3517-29.4087-40.101-35.5194-19.0978,3.82-28.6459,1.91S155.9089,236.1857,149.4161,236.1857Z" fill="#00aaab" fill-rule="evenodd"/><path d="M181.527,7.804C84.6879,24.5092,3.6178,119.1645,5.0488,218.618,6.5764,324.7938,81.6288,452.19,231.9136,443.9552c86.3774-4.733,139.701-44.7255,171.1348-94.5807C292.9071,465.2822,56.0631,419.9228,46.0318,214.1887,41.62,132.867,83.5526,54.4662,181.527,7.804Z" fill="#353874" fill-rule="evenodd"/><path d="M128.2619,25.3894A219.2031,219.2031,0,0,0,87.3672,51.781c1.5075,9.1373,2.8937,17.17,2.4647,20.1723-.27,1.89-2.3623,6.5542-5.2756,12.5338A229.9777,229.9777,0,0,1,134.2572,35.73C132.3627,33.6717,130.3441,29.7882,128.2619,25.3894ZM195.154,404.48c9.2362,20.7023,28.9781,27.2437,35.9925,31.07,0,0,2.604-.0417,2.0639-3.8226-.54-3.9977-9.8258-13.2878-10.3951-21.5778A248.32,248.32,0,0,1,195.154,404.48Z" fill="#15768b" fill-rule="evenodd"/></g></svg>