<svg xmlns="http://www.w3.org/2000/svg" xmlns:xlink="http://www.w3.org/1999/xlink" width="1024" zoomAndPan="magnify" viewBox="0 0 768 767.999994" height="1024" preserveAspectRatio="xMidYMid meet" version="1.2"><g id="eff06f2fde"><path style=" stroke:none;fill-rule:evenodd;fill:#5ce1e6;fill-opacity:1;" d="M 611.25 103.539062 C 595.875 105.402344 575.34375 111.09375 557.480469 118.4375 C 542.972656 124.398438 516 138.171875 516 139.613281 C 516 141.15625 517.605469 143.25 518.789062 143.25 C 519.46875 143.25 524.328125 140.878906 529.589844 137.980469 C 534.851562 135.078125 541.792969 131.503906 545.015625 130.039062 L 553.9375 125.972656 C 569.40625 118.925781 592.582031 111.945312 607.125 109.960938 C 610.621094 109.480469 610.546875 109.511719 598.5 113.402344 C 579.207031 119.632812 551.511719 132.355469 531.9375 143.972656 C 524.449219 148.417969 521.25 150.726562 521.25 151.679688 C 521.25 153.167969 525.515625 161.96875 528.585938 166.8125 C 534.417969 176.015625 536.175781 178.519531 541.453125 185.132812 C 555.242188 202.410156 574.445312 217.09375 596.007812 226.847656 C 606.136719 231.425781 616.863281 235.5 618.792969 235.5 C 620.4375 235.5 623.371094 228.886719 629.683594 210.957031 C 635.453125 194.558594 639.832031 178.0625 642.476562 162.75 C 646.746094 138.039062 645.253906 107.863281 639.585938 104.300781 C 637.492188 102.984375 619.75 102.507812 611.25 103.539062 M 500.996094 148.28125 C 474.667969 166.109375 449.847656 186.941406 422.992188 213.75 C 389.789062 246.898438 369.769531 271.136719 341.855469 312 C 323.011719 339.585938 300.710938 379.230469 295.429688 394.542969 L 293.730469 399.460938 L 297.949219 407.78125 C 304.730469 421.167969 313.09375 433.5 315.382812 433.5 C 315.945312 433.5 320.949219 427.847656 326.5 420.9375 C 356.261719 383.867188 365.59375 373.117188 383.976562 354.699219 C 409.289062 329.339844 433.28125 312.625 446.027344 311.46875 C 451.570312 310.96875 453 312.082031 453 316.90625 C 453 328.71875 435.890625 357.492188 408.589844 391.589844 C 394.035156 409.769531 383.605469 421.238281 362.480469 442.308594 C 352.042969 452.726562 343.5 461.570312 343.5 461.964844 C 343.5 462.957031 352.351562 468.035156 363.65625 473.527344 C 372.492188 477.816406 373.476562 478.125 378.375 478.125 C 383.542969 478.125 383.761719 478.042969 392.25 472.921875 C 427.535156 451.625 458.617188 428.761719 490.125 400.925781 C 543.253906 353.988281 588.457031 298.589844 611.753906 251.871094 C 613.949219 247.46875 615.574219 243.417969 615.363281 242.871094 C 615.152344 242.324219 610.851562 240.378906 605.804688 238.550781 C 594.484375 234.457031 579.5625 226.960938 569.625 220.382812 C 559.875 213.925781 547.039062 202.84375 540.144531 194.921875 C 532.917969 186.617188 523.882812 173.113281 518.945312 163.222656 C 516.753906 158.839844 514.683594 155.25 514.34375 155.25 C 512.550781 155.25 493.546875 169.0625 476.625 182.660156 C 444.105469 208.796875 407.324219 246.535156 378.714844 283.125 C 356.691406 311.292969 340.835938 334.855469 319.164062 371.625 C 314.300781 379.875 308.929688 388.808594 307.222656 391.476562 L 304.125 396.332031 L 303.902344 393.6875 C 303.019531 383.273438 341.433594 319.566406 374.1875 277.125 C 393.039062 252.695312 414.664062 229.09375 439.40625 205.945312 C 464.113281 182.824219 479.519531 170.242188 502.496094 154.417969 C 507.65625 150.863281 511.972656 147.460938 512.09375 146.851562 C 512.214844 146.242188 511.707031 145 510.96875 144.09375 L 509.625 142.441406 Z M 498.328125 213.769531 C 494.140625 214.601562 486.78125 217.664062 483.28125 220.039062 C 478.625 223.191406 472.128906 229.992188 469.953125 233.992188 C 460.726562 250.941406 462.964844 269.707031 475.84375 283.359375 C 481.929688 289.808594 486.101562 292.554688 493.652344 295.082031 C 505.410156 299.015625 516.175781 298.214844 527.660156 292.550781 C 546.6875 283.171875 555.664062 258.3125 547.082031 238.742188 C 541.507812 226.023438 531.625 217.695312 517.90625 214.152344 C 513.199219 212.9375 503.472656 212.746094 498.328125 213.769531 M 494.625 217.328125 C 477.597656 223.140625 467.25 237.378906 467.25 255 C 467.25 277.328125 485.308594 294.722656 508.5 294.730469 C 519.199219 294.734375 527.894531 291.125 535.519531 283.511719 C 543.558594 275.484375 547.5 266.109375 547.5 255 C 547.5 243.925781 543.855469 234.871094 536.328125 227.253906 C 525.464844 216.261719 509.136719 212.375 494.625 217.328125 M 502.539062 223.597656 C 485.496094 225.695312 472.542969 243.203125 475.492188 260.144531 C 477.742188 273.070312 486.652344 282.84375 499.152344 286.101562 C 517.136719 290.785156 534.046875 280.671875 538.933594 262.308594 C 541.707031 251.898438 538.546875 241.03125 530.371094 232.847656 C 525.660156 228.125 521.261719 225.609375 515.625 224.402344 C 509.453125 223.085938 507.605469 222.972656 502.539062 223.597656 M 318 276.105469 C 314.082031 276.382812 309.1875 276.988281 307.125 277.453125 C 271.96875 285.375 236.648438 315.761719 202.015625 367.875 C 183.246094 396.117188 165.375 428.527344 167.074219 431.25 C 168.507812 433.542969 170.894531 432.859375 177.898438 428.144531 C 196.058594 415.917969 216.5 404.644531 231.410156 398.632812 C 247.019531 392.339844 265.839844 389.902344 278.519531 392.527344 C 281.757812 393.199219 284.871094 393.75 285.429688 393.75 C 286.011719 393.75 290.128906 386.394531 294.976562 376.6875 C 309.574219 347.484375 325.125 321.980469 345.628906 293.625 C 353.296875 283.019531 353.945312 281.976562 353.519531 280.867188 C 353.296875 280.296875 351.546875 279.320312 349.621094 278.703125 C 341.617188 276.128906 330.550781 275.222656 318 276.105469 M 310.125 282.441406 C 290.398438 285.914062 270.234375 297.890625 248.367188 319.125 C 234.046875 333.03125 221.320312 348.699219 208.164062 368.625 C 202.714844 376.875 197.980469 384.132812 197.644531 384.75 C 196.226562 387.34375 198.765625 384.046875 202.546875 378.375 C 214.714844 360.125 231.652344 339.628906 247.488281 324 C 273.222656 298.597656 294.832031 286.429688 322.5 281.769531 C 323.53125 281.597656 322.519531 281.4375 320.25 281.417969 C 317.980469 281.402344 313.425781 281.859375 310.125 282.441406 M 439.125 318.292969 C 424.875 324.785156 409.261719 336.929688 388.433594 357.714844 C 366.621094 379.484375 350.132812 398.824219 313.90625 445.125 C 290.125 475.523438 288.476562 477.65625 278.59375 490.867188 C 259.5 516.402344 257.945312 519.027344 260.597656 521.226562 C 262.667969 522.945312 266.503906 520.644531 281.292969 508.8125 C 324.367188 474.34375 371.488281 428.246094 405.808594 387 C 412.839844 378.546875 426.160156 360.328125 431.699219 351.585938 C 441.625 335.917969 448.691406 320.78125 447.511719 317.707031 C 446.863281 316.023438 443.613281 316.25 439.125 318.292969 M 285 411 C 283.96875 411.808594 282.863281 412.472656 282.546875 412.484375 C 281.71875 412.507812 276.160156 416.125 272.5 419.023438 C 266.015625 424.160156 265.117188 434.25 270.210938 444.835938 C 274.746094 454.257812 285.734375 467.25 289.175781 467.25 C 290.261719 467.25 308.25 443.839844 308.25 442.421875 C 308.25 441.921875 306.96875 439.792969 305.398438 437.691406 C 303.832031 435.59375 300.371094 430.417969 297.710938 426.195312 C 295.050781 421.972656 292.511719 418.511719 292.066406 418.507812 C 290.9375 418.496094 281.222656 427.113281 277.417969 431.492188 C 274.035156 435.386719 273.03125 435.230469 273.011719 430.800781 C 272.988281 425.828125 274.164062 424.351562 282.398438 419.050781 L 290.277344 413.976562 L 289.117188 411.738281 C 287.761719 409.113281 287.476562 409.0625 285 411 M 476.851562 421.414062 C 447.558594 445.921875 424.902344 461.863281 384.757812 486.203125 C 379.460938 489.417969 379.492188 489.261719 382.164062 498.75 C 384.246094 506.140625 384.117188 523.871094 381.917969 532.675781 C 378.015625 548.3125 369.855469 565.582031 354.152344 591.453125 C 349.117188 599.746094 345 607.261719 345 608.15625 C 345 610.984375 347.984375 611.671875 351.808594 609.71875 C 361.984375 604.527344 384.429688 589.808594 400.125 578.035156 C 430.050781 555.582031 456.976562 528.5625 472.683594 505.222656 C 488.667969 481.46875 496.664062 452.789062 494.304688 427.691406 C 493.371094 417.78125 491.984375 410.855469 490.871094 410.527344 C 490.460938 410.40625 484.152344 415.304688 476.851562 421.414062 M 253.886719 458.746094 C 233.480469 463.117188 212.828125 477.339844 194.703125 499.5 C 189.074219 506.382812 182.128906 516.773438 182.488281 517.777344 C 182.925781 519.007812 185.394531 518.566406 194.25 515.691406 C 207.21875 511.480469 218.3125 508.3125 218.707031 508.707031 C 218.914062 508.914062 217.9375 510.214844 216.542969 511.601562 C 213.023438 515.097656 198.511719 531.027344 193.0625 537.375 C 169.414062 564.925781 146.34375 599.730469 125.417969 639.429688 C 117.835938 653.816406 113.664062 662.914062 114.339844 663.589844 C 115.632812 664.882812 133.21875 654.410156 163.875 634.097656 C 199.472656 610.507812 219.296875 594.898438 243.097656 571.71875 C 250.933594 564.089844 257.511719 558.011719 257.714844 558.214844 C 258.886719 559.386719 252.742188 577.300781 244.179688 597.667969 C 238.1875 611.917969 237.117188 615 238.164062 615 C 240.261719 615 256.402344 603.386719 267.375 593.980469 C 276.9375 585.78125 292.847656 569.125 297.976562 561.941406 C 308.003906 547.898438 312.765625 537.832031 315.324219 525.261719 C 316.628906 518.859375 316.667969 508.125 315.390625 508.125 C 314.984375 508.125 313.621094 510.992188 312.355469 514.5 C 308 526.574219 301.375 537.015625 291.273438 547.71875 C 286.398438 552.882812 276.203125 561.75 275.132812 561.75 C 274.125 561.75 274.398438 558.191406 276.03125 550.125 C 278.363281 538.585938 279.410156 528.109375 278.335938 527.035156 C 277.113281 525.8125 275.53125 526.898438 266.132812 535.375 C 257.128906 543.496094 244.457031 553.277344 233.25 560.757812 C 216.929688 571.652344 187.507812 586.644531 185.71875 584.972656 C 184.964844 584.273438 190.277344 574.003906 199.859375 557.625 C 215 531.746094 229.09375 512.777344 244.429688 497.640625 C 250.855469 491.296875 252.050781 489.585938 250.667969 488.726562 C 250.0625 488.355469 238.910156 490.4375 233.625 491.90625 C 229.542969 493.042969 226.5 492.976562 226.5 491.753906 C 226.5 489.875 231.058594 483.875 236.101562 479.117188 C 244.25 471.433594 250.980469 466.636719 262.472656 460.320312 C 267.480469 457.566406 263.117188 456.765625 253.886719 458.746094 M 331.265625 472.285156 C 321.257812 480.910156 311.605469 490.191406 311.386719 491.398438 C 310.925781 493.960938 327.738281 503.121094 337.394531 505.5625 C 345.339844 507.570312 348.523438 506.839844 351.601562 502.289062 C 354.570312 497.894531 360.890625 484.445312 360.480469 483.382812 C 360.296875 482.898438 355.304688 479.863281 349.386719 476.628906 C 343.46875 473.398438 337.90625 470.292969 337.027344 469.726562 C 335.5625 468.78125 335.089844 468.988281 331.265625 472.285156 "/></g></svg>