<svg width="535" height="535" viewBox="0 0 535 535" fill="none" xmlns="http://www.w3.org/2000/svg">
<path d="M129.907 219.149L27.4453 423.78C27.4453 423.78 350.515 529.412 348.93 524.447C347.345 519.483 391.608 305.674 391.608 305.674L129.907 219.149Z" fill="url(#paint0_linear_1_16962)"/>
<path d="M517.434 282.185C518.31 262.494 422.816 181.851 422.816 181.851L151.811 108.051C151.811 108.051 29.0324 129.286 19.7708 146.682C10.5093 164.079 19.7708 258.572 242.466 319.189C465.16 379.807 516.558 301.876 517.434 282.185Z" fill="#6593A2"/>
<path d="M426.945 168.961C418.435 93.0751 348.806 41.9279 274.672 39.0493C228.239 37.2554 184.476 58.4485 156.816 95.4113C147.847 107.426 136.082 121.736 144.718 137.005C155.023 155.236 179.595 167.543 197.743 176.346C245.427 199.5 298.452 213.934 351.393 218.19C371.501 219.775 398.243 221.444 416.349 210.972C431.534 202.17 428.614 183.855 426.945 168.961Z" fill="#505C70"/>
<mask id="mask0_1_16962" style="mask-type:luminance" maskUnits="userSpaceOnUse" x="17" y="108" width="501" height="219">
<path d="M517.43 282.184C518.306 262.493 422.812 181.851 422.812 181.851L151.807 108.05C151.807 108.05 29.0288 129.285 19.7673 146.682C10.5057 164.079 22.8127 239.381 245.507 299.998C468.202 360.616 516.554 301.876 517.43 282.184Z" fill="white"/>
</mask>
<g mask="url(#mask0_1_16962)">
<path d="M247.926 291.822C113.759 255.276 14.5934 187.608 21.1432 138.213C20.5591 139.632 20.0168 141.05 19.6413 142.552C6.12446 192.239 107.251 262.994 245.507 300.666C383.763 338.297 506.833 328.576 520.35 278.889C520.767 277.387 521.059 275.885 521.226 274.383C501.868 320.232 382.052 328.326 247.926 291.822Z" fill="#40C0E7"/>
</g>
<path d="M81.6773 159.491C78.8821 163.371 71.4562 162.787 65.0732 158.197C58.6902 153.608 55.8116 146.725 58.6068 142.845C61.4019 138.965 68.8279 139.549 75.2108 144.138C81.5938 148.769 84.4724 155.611 81.6773 159.491Z" fill="#40C0E7"/>
<path d="M123.064 198.331C120.269 202.211 112.843 201.627 106.46 197.038C100.077 192.449 97.1984 185.565 99.9935 181.685C102.789 177.805 110.215 178.39 116.598 182.979C122.981 187.568 125.859 194.451 123.064 198.331Z" fill="#40C0E7"/>
<path d="M183.015 232.707C180.929 237.004 173.503 237.755 166.453 234.334C159.361 230.914 155.314 224.656 157.4 220.359C159.486 216.062 166.912 215.311 173.962 218.732C181.013 222.153 185.101 228.369 183.015 232.707Z" fill="#40C0E7"/>
<path d="M260.321 260.658C259.07 265.289 251.894 267.333 244.301 265.289C236.708 263.244 231.577 257.821 232.829 253.19C234.08 248.559 241.256 246.515 248.849 248.559C256.441 250.604 261.573 256.069 260.321 260.658Z" fill="#40C0E7"/>
<path d="M339.377 278.723C338.417 283.395 331.367 285.899 323.69 284.313C315.972 282.728 310.549 277.638 311.508 272.966C312.468 268.293 319.518 265.79 327.195 267.375C334.913 268.961 340.378 274.05 339.377 278.723Z" fill="#40C0E7"/>
<path d="M409.004 283.979C408.545 288.734 401.787 291.947 393.985 291.196C386.184 290.403 380.218 285.898 380.677 281.142C381.136 276.386 387.894 273.173 395.696 273.924C403.497 274.675 409.463 279.181 409.004 283.979Z" fill="#40C0E7"/>
<path d="M482.597 270.838C483.806 275.469 478.633 280.851 471.041 282.853C463.448 284.856 456.272 282.728 455.062 278.097C453.852 273.467 459.026 268.085 466.618 266.082C474.253 264.08 481.387 266.207 482.597 270.838Z" fill="#40C0E7"/>
<path d="M430.155 159.24C420.81 85.5651 350.138 35.2106 275.545 31.6228C228.778 29.37 185.015 49.4784 157.523 85.0228C148.595 96.5789 136.955 110.346 145.8 125.24C156.354 143.012 181.261 155.235 199.575 163.955C247.802 186.9 301.327 201.502 354.644 206.174C374.877 207.926 401.828 209.845 419.934 199.874C435.119 191.531 431.99 173.717 430.155 159.24Z" fill="#81D7EE"/>
<path d="M78.6768 239.591L89.3568 247.517C91.1924 249.103 94.8636 251.648 95.0722 254.067C95.8649 262.495 95.1139 265.331 94.6133 271.798C94.071 278.848 76.2154 259.449 72.4189 245.098C70.8754 239.257 74.0877 235.711 78.6768 239.591ZM419.853 332.457L406.628 333.875C404.25 334.292 399.786 334.668 398.368 336.629C393.445 343.471 392.61 346.307 389.773 352.106C386.645 358.489 411.926 350.771 422.439 340.342C426.736 336.17 425.777 331.414 419.853 332.457ZM252.936 313.975C251.559 311.222 247.471 309.22 245.218 308.26C240.796 306.341 235.414 306.174 230.95 308.177C230.032 308.594 229.323 309.345 229.073 310.304C227.738 315.561 231.451 330.955 238.209 330.746C241.296 330.663 244.676 326.95 246.845 325.031C249.306 322.862 252.268 320.192 253.228 316.896C253.52 315.853 253.395 314.852 252.936 313.975Z" fill="#93B1BB"/>
<defs>
<linearGradient id="paint0_linear_1_16962" x1="267.47" y1="266.082" x2="209.527" y2="482.602" gradientUnits="userSpaceOnUse">
<stop stop-color="#40C0E7"/>
<stop offset="1" stop-color="#40C0E7" stop-opacity="0"/>
</linearGradient>
</defs>
</svg>
